<svg width="336" height="304" viewBox="0 0 336 304" fill="none" xmlns="http://www.w3.org/2000/svg">
<path d="M0.675649 249.836C3.6088 248.4 4.854 244.589 8.03619 243.595C11.3014 242.574 14.9263 244.589 17.9148 242.38C19.2153 241.414 20.1838 239.812 21.7611 239.232C23.1447 238.735 24.5836 239.287 25.9118 239.702C27.0463 240.061 28.1808 240.392 29.3153 240.751C33.8811 242.159 38.4192 243.54 42.9849 244.948C48.1594 246.522 53.3063 248.124 58.4808 249.698C58.9789 249.864 59.2002 249.063 58.7021 248.897C49.2386 245.998 39.8027 243.098 30.3392 240.199C28.1255 239.536 25.8288 238.514 23.5321 238.238C21.9271 238.045 20.6543 238.68 19.5197 239.729C17.9425 241.193 16.7526 242.546 14.4559 242.656C12.5466 242.767 10.6649 242.27 8.75563 242.574C4.82632 243.181 3.60879 247.461 0.288249 249.091C-0.209832 249.367 0.205238 250.085 0.675649 249.836Z" fill="#E8E8E8"/>
<path d="M50.4007 246.357C52.3654 246.854 53.915 244.893 55.6859 244.313C58.0656 243.512 60.6114 243.844 62.7697 245.086C63.2402 245.362 63.6552 244.644 63.1848 244.368C61.3585 243.291 59.2832 242.85 57.1802 243.126C56.267 243.236 55.4092 243.485 54.5791 243.844C53.3892 244.368 52.0057 245.887 50.6221 245.556C50.0963 245.418 49.875 246.219 50.4007 246.357Z" fill="#E8E8E8"/>
<path d="M71.7353 244.286C69.8813 242.767 68.1103 241.138 66.4501 239.398C65.6753 238.597 64.9282 237.741 64.2087 236.885C63.7936 236.388 63.3786 235.891 62.9912 235.394C62.7145 235.035 62.4377 234.676 62.1887 234.317C61.746 233.875 61.746 233.323 62.2164 232.715C62.5484 232.853 63.0742 232.522 62.7975 232.135C61.1095 229.871 59.8643 227.386 59.0619 224.679C58.8958 224.845 58.7298 225.011 58.5638 225.176C59.4769 225.425 60.141 225.894 60.6391 226.668C60.9158 227.109 61.6353 226.723 61.3586 226.253C57.2356 219.129 53.8597 211.618 51.3139 203.803C51.0926 203.941 50.8435 204.079 50.6221 204.217C62.2164 215.594 67.4739 231.417 77.2418 244.148C77.5739 244.562 78.2933 244.148 77.9613 243.733C68.1657 230.948 62.8528 215.07 51.2032 203.637C50.9265 203.361 50.3731 203.637 50.5115 204.051C53.0849 211.949 56.4608 219.516 60.6391 226.695C60.8882 226.557 61.1095 226.419 61.3586 226.281C60.7221 225.315 59.892 224.679 58.7852 224.403C58.4808 224.32 58.1764 224.597 58.2871 224.9C59.1172 227.662 60.3901 230.23 62.1057 232.55C62.2994 232.356 62.4931 232.163 62.6868 231.97C61.912 231.611 61.0542 231.97 60.8605 232.881C60.6115 234.179 62.1887 235.615 62.9082 236.526C65.3709 239.591 68.1657 242.38 71.2095 244.865C71.5692 245.197 72.1503 244.617 71.7353 244.286Z" fill="#E8E8E8"/>
<path d="M68.8297 227.027C63.7382 219.433 59.6152 211.286 56.5714 202.671C56.4884 202.836 56.3777 203.002 56.2947 203.168C57.2355 202.947 58.038 203.306 58.5637 204.134C58.8404 204.604 59.5045 204.19 59.2832 203.72C54.9941 194.469 50.6221 184.832 50.9265 174.421C50.6774 174.504 50.4007 174.559 50.1517 174.642C57.5399 189.83 64.5684 205.211 71.2095 220.731C71.4032 221.172 72.1226 220.841 71.9566 220.399C70.8497 217.085 69.7706 213.744 68.6637 210.43C68.138 208.801 67.5845 207.2 67.0588 205.57C66.6991 204.493 65.9243 202.146 67.4739 201.566C67.3078 201.511 67.1695 201.428 67.0034 201.373C68.9958 205.266 70.9604 209.16 72.9527 213.054C73.2018 213.523 73.9213 213.109 73.6722 212.64C71.5139 208.415 70.5177 203.748 70.7114 198.998C70.4347 199.026 70.158 199.081 69.9089 199.108C75.6645 213.385 82.3333 227.303 89.8322 240.751C90.0812 241.22 90.8007 240.806 90.5516 240.337C83.0804 226.944 76.4393 213.109 70.7114 198.888C70.5454 198.473 69.9089 198.501 69.9089 198.998C69.7152 203.886 70.7667 208.663 72.9804 213.054C73.2295 212.916 73.4508 212.778 73.6999 212.64C71.7075 208.746 69.7429 204.852 67.7506 200.959C67.6676 200.821 67.4462 200.71 67.2802 200.765C64.513 201.787 66.284 205.736 66.8928 207.586C68.3317 211.922 69.7429 216.285 71.1818 220.62C71.4308 220.51 71.6799 220.399 71.9289 220.289C65.2878 204.769 58.2593 189.388 50.8711 174.2C50.6774 173.814 50.0963 174.035 50.0963 174.421C49.7643 184.97 54.2193 194.773 58.5637 204.134C58.8128 203.996 59.0341 203.858 59.2832 203.72C58.5637 202.588 57.4015 202.091 56.0733 202.367C55.8519 202.422 55.7136 202.671 55.7966 202.864C58.8681 211.535 63.0188 219.764 68.138 227.413C68.4147 227.883 69.1341 227.468 68.8297 227.027Z" fill="#E8E8E8"/>
<path d="M14.1515 280.405C23.7257 275.794 33.8257 271.099 44.7558 272.204C49.9303 272.728 54.9388 274.22 60.0856 274.882C62.6867 275.214 65.3155 275.352 67.9166 275.048C70.3517 274.744 72.6484 273.861 75.0281 273.336C78.0996 272.646 80.8944 273.364 83.8552 274.192C86.2903 274.855 88.6977 275.407 91.2157 274.827C91.7415 274.717 91.5201 273.916 90.9944 274.026C85.9582 275.214 81.2264 271.596 76.1349 272.314C73.6169 272.673 71.2648 273.667 68.7744 274.109C66.1456 274.551 63.4615 274.496 60.8051 274.164C55.5752 273.557 50.4837 272.01 45.2262 271.431C40.0517 270.851 34.9325 271.513 29.9794 272.949C24.3345 274.606 18.9939 277.147 13.7364 279.687C13.2383 279.908 13.6811 280.626 14.1515 280.405Z" fill="#E8E8E8"/>
<path d="M70.3241 303.297C73.5616 301.917 76.7438 300.398 79.8153 298.686C81.4202 297.775 82.9975 296.836 84.5747 295.842C85.986 294.93 87.3972 293.632 88.9468 292.97C90.6901 292.252 93.3188 293.605 95.0621 294.13C96.9161 294.709 98.7701 295.262 100.596 295.842C104.387 297.001 108.178 298.161 111.942 299.321C112.44 299.487 112.661 298.686 112.163 298.52C108.123 297.278 104.055 296.035 100.015 294.792C98.0783 294.185 96.1413 293.605 94.2043 292.997C92.7101 292.528 90.8284 291.561 89.2512 291.948C87.7846 292.307 86.4564 293.577 85.2112 294.406C83.6062 295.455 81.946 296.477 80.2857 297.443C76.9375 299.349 73.4786 301.061 69.909 302.552C69.4109 302.773 69.8537 303.491 70.3241 303.297Z" fill="#E8E8E8"/>
<path d="M104.747 304.154C106.85 303.104 108.953 302.027 111.056 300.978C112.993 299.984 115.068 298.658 117.282 298.465C119.523 298.244 121.267 299.708 123.204 300.564C124.836 301.282 126.607 301.696 128.378 301.806C132.529 302.027 136.403 299.956 140.526 300.177C143.819 300.37 147.139 303.077 150.377 301.365C150.847 301.116 150.432 300.398 149.962 300.647C147.942 301.724 145.756 300.674 143.763 300.039C142.048 299.487 140.387 299.238 138.589 299.432C134.327 299.873 130.426 301.668 126.054 300.647C122.429 299.818 119.662 296.808 115.76 297.94C113.961 298.465 112.274 299.459 110.613 300.288C108.51 301.337 106.407 302.414 104.304 303.463C103.862 303.684 104.277 304.402 104.747 304.154Z" fill="#E8E8E8"/>
<path d="M120.907 298.161C119.191 296.67 117.642 295.013 116.369 293.108C115.788 292.252 115.262 291.34 114.764 290.429C114.515 289.96 114.294 289.49 114.1 289.021C113.934 288.634 113.768 288.275 113.629 287.889C113.38 287.474 113.491 287.088 113.962 286.729C114.211 286.618 114.46 286.508 114.709 286.397C111.665 281.924 109.756 276.843 109.119 271.486C108.87 271.596 108.649 271.679 108.4 271.79C108.898 272.425 109.396 273.06 109.922 273.723C110.226 274.109 110.807 273.612 110.586 273.225C105.771 264.637 103.197 254.972 103.142 245.142C102.893 245.252 102.672 245.335 102.423 245.445C104.304 246.964 105.743 248.842 106.629 251.079C106.878 250.968 107.127 250.858 107.376 250.747C105.217 246.191 104.775 241.055 106.048 236.195C105.771 236.195 105.522 236.195 105.245 236.195C110.918 252.404 116.563 268.586 122.235 284.796C122.401 285.293 123.204 285.072 123.038 284.575C120.188 276.263 118.776 267.537 118.859 258.728C118.61 258.838 118.389 258.921 118.14 259.032C119.828 260.55 120.879 262.456 121.267 264.693C121.35 265.162 122.097 265.052 122.069 264.582C121.986 262.898 121.876 261.186 121.793 259.501C121.571 259.612 121.377 259.75 121.156 259.86C122.623 260.799 122.899 263.284 123.37 264.831C123.868 266.488 124.366 268.144 124.892 269.829C125.916 273.253 126.967 276.65 127.991 280.074C130.066 286.895 132.142 293.743 134.217 300.564C134.383 301.061 135.185 300.867 135.019 300.343C132.778 292.997 130.564 285.624 128.323 278.279C127.244 274.689 126.137 271.099 125.058 267.509C124.504 265.659 123.951 263.837 123.397 261.986C123.038 260.854 122.623 259.832 121.599 259.17C121.35 259.004 120.962 259.225 120.962 259.529C121.045 261.213 121.156 262.925 121.239 264.61C121.516 264.582 121.793 264.527 122.042 264.499C121.654 262.124 120.492 260.053 118.693 258.452C118.417 258.203 118.002 258.369 117.974 258.755C117.891 267.62 119.302 276.429 122.18 284.823C122.457 284.741 122.706 284.685 122.982 284.603C117.31 268.393 111.665 252.211 105.992 236.001C105.854 235.642 105.3 235.587 105.19 236.001C103.862 241.11 104.36 246.439 106.601 251.189C106.795 251.603 107.542 251.3 107.348 250.858C106.407 248.483 104.941 246.467 102.921 244.865C102.644 244.645 102.201 244.783 102.201 245.169C102.257 255.138 104.858 264.969 109.756 273.667C109.977 273.502 110.198 273.336 110.42 273.17C109.922 272.535 109.423 271.9 108.898 271.237C108.676 270.961 108.151 271.182 108.178 271.541C108.815 277.064 110.752 282.283 113.879 286.867C114.155 287.254 114.709 287.005 114.626 286.536C114.487 285.762 113.574 285.486 112.938 285.956C111.776 286.784 112.91 288.745 113.325 289.684C114.902 293.191 117.254 296.256 120.16 298.769C120.741 299.072 121.322 298.493 120.907 298.161Z" fill="#E8E8E8"/>
<path d="M91.9629 236.222C91.6031 231.031 101.039 234.013 103.668 234.51C107.984 235.311 112.274 236.112 116.59 236.913C125.196 238.514 133.829 240.116 142.435 241.718C142.961 241.828 143.182 241.027 142.656 240.917C132.778 239.067 122.927 237.244 113.048 235.394C108.206 234.483 103.363 233.571 98.5209 232.688C96.7777 232.356 94.7577 231.997 93.1251 232.909C91.8798 233.571 91.0497 234.786 91.1604 236.222C91.1604 236.747 92.0182 236.747 91.9629 236.222Z" fill="#E8E8E8"/>
<path d="M136.707 240.806C139.585 241.11 141.356 238.376 143.597 237.051C145.507 235.946 147.167 236.802 149.132 237.189C151.318 237.631 153.559 237.686 155.773 237.41C156.298 237.354 156.298 236.526 155.773 236.581C153.282 236.885 150.792 236.775 148.357 236.167C146.89 235.78 145.562 235.311 144.096 235.891C141.494 236.885 139.723 240.309 136.707 239.978C136.182 239.923 136.182 240.751 136.707 240.806Z" fill="#E8E8E8"/>
<path d="M189.476 293.909C196.117 291.589 202.814 289.269 209.676 287.612C216.843 285.9 224.065 285.21 231.426 285.431C238.703 285.652 245.925 286.48 253.175 287.143C260.453 287.833 267.73 288.496 275.008 289.187C283.365 289.96 291.749 290.733 300.106 291.534C300.631 291.589 300.631 290.761 300.106 290.705C285.191 289.325 270.276 287.944 255.334 286.536C240.972 285.21 226.528 283.249 212.222 286.204C204.363 287.833 196.781 290.484 189.227 293.108C188.757 293.273 188.978 294.074 189.476 293.909Z" fill="#E8E8E8"/>
<path d="M218.725 266.736C223.678 265.687 228.326 263.616 233.003 261.738C238.011 259.75 243.075 258.369 248.443 257.9C253.867 257.43 259.318 257.706 264.714 258.038C270.138 258.369 275.561 258.756 281.012 259.142C287.349 259.612 293.714 260.136 300.05 260.689C300.576 260.744 300.576 259.915 300.05 259.86C288.816 258.866 277.581 258.01 266.319 257.292C255.61 256.602 245.068 256.326 234.857 260.109C229.433 262.125 224.176 264.693 218.476 265.908C218.005 266.046 218.199 266.847 218.725 266.736Z" fill="#E8E8E8"/>
<path d="M282.507 234.897C286.464 231.887 290.642 228.932 295.069 226.668C297.228 225.563 299.552 224.679 301.987 224.486C304.616 224.265 307.245 224.79 309.818 225.121C315.048 225.756 320.306 226.143 325.563 226.474C329.05 226.695 333.477 227.192 335.94 224.155C336.272 223.74 335.691 223.161 335.359 223.575C332.564 227.027 326.67 225.729 322.851 225.48C317.594 225.121 312.392 224.624 307.162 223.961C304.92 223.685 302.707 223.464 300.465 223.879C298.252 224.265 296.176 225.149 294.212 226.198C289.95 228.462 285.91 231.279 282.064 234.206C281.677 234.51 282.092 235.228 282.507 234.897Z" fill="#E8E8E8"/>
<path d="M130.177 230.34C134.106 227.386 138.063 224.458 141.992 221.504C145.756 218.687 149.27 215.732 154.195 215.484C158.844 215.263 163.604 215.788 168.225 216.174C173.206 216.588 178.159 217.141 183.084 217.831C187.235 218.411 192.188 219.957 196.117 217.803C196.588 217.555 196.173 216.837 195.702 217.085C193.682 218.19 191.441 218.19 189.2 217.914C186.792 217.61 184.385 217.196 181.977 216.864C177.329 216.229 172.652 215.705 167.948 215.318C163.327 214.931 158.54 214.379 153.919 214.655C149.63 214.904 146.448 217.113 143.099 219.626C138.644 222.94 134.217 226.281 129.762 229.595C129.347 229.954 129.762 230.672 130.177 230.34Z" fill="#E8E8E8"/>
<path d="M285.855 259.529C286.104 257.706 286.464 255.939 286.99 254.172C287.239 253.343 287.488 252.515 287.82 251.686C288.013 251.189 288.539 250.361 289.259 250.554C289.618 250.665 289.784 251.907 289.812 252.156C289.867 252.598 290.476 252.736 290.614 252.266C291.915 248.041 293.409 243.402 297.394 240.944C297.173 240.834 296.979 240.696 296.757 240.585C296.757 241.276 296.73 241.994 296.73 242.684C296.73 243.071 297.311 243.264 297.505 242.905C299.967 237.796 302.651 232.439 307.632 229.346C307.439 229.181 307.217 229.043 307.023 228.877C304.533 235.311 301.628 241.579 298.335 247.655C298.113 248.041 298.667 248.538 298.999 248.152C300.853 245.943 302.734 243.733 305.17 242.132C304.976 241.938 304.782 241.745 304.588 241.552C301.517 248.014 298.169 254.31 294.488 260.44C294.212 260.909 294.931 261.324 295.208 260.854C298.86 254.724 302.236 248.428 305.308 241.966C305.474 241.635 305.114 241.138 304.727 241.386C302.236 243.043 300.299 245.28 298.39 247.544C298.611 247.71 298.833 247.876 299.054 248.041C302.375 241.911 305.308 235.587 307.826 229.07C307.964 228.739 307.494 228.435 307.217 228.601C302.098 231.776 299.331 237.216 296.785 242.463C297.034 242.546 297.311 242.601 297.56 242.684C297.56 241.994 297.588 241.276 297.588 240.585C297.588 240.282 297.228 240.061 296.951 240.226C292.801 242.794 291.168 247.599 289.812 252.045C290.089 252.073 290.365 252.128 290.614 252.156C290.476 250.747 289.203 248.345 287.654 250.14C286.879 251.051 286.574 252.542 286.242 253.675C285.689 255.497 285.302 257.375 285.025 259.28C284.997 259.833 285.772 260.053 285.855 259.529Z" fill="#E8E8E8"/>
<path d="M92.5164 212.916C94.6747 211.756 96.8608 210.596 99.2405 209.961C101.759 209.298 104.249 209.519 106.767 209.851C111.776 210.513 116.784 211.176 121.765 211.839C122.291 211.922 122.291 211.093 121.765 211.01C116.424 210.292 111.056 209.519 105.716 208.884C103.253 208.58 100.901 208.58 98.521 209.271C96.252 209.933 94.149 211.066 92.0737 212.17C91.6032 212.474 92.046 213.164 92.5164 212.916Z" fill="#E8E8E8"/>
<path d="M260.84 25.6074C262.833 23.923 265.627 24.2543 267.813 25.3313C269.474 26.1321 270.83 27.7614 272.767 27.8442C274.565 27.8994 276.059 26.6844 277.581 25.8836C278.605 25.3589 279.657 24.9999 280.819 25.2484C282.064 25.497 283.143 26.2149 284.278 26.712C288.013 28.3413 290.504 26.0769 293.658 24.2819C294.544 23.7849 295.485 23.3431 296.508 23.2602C297.809 23.1498 298.971 23.7297 300.133 24.2267C301.96 24.9999 303.343 25.3037 305.197 24.5581C307.106 23.8125 308.656 23.923 310.565 24.6133C311.783 25.0551 312.945 25.6074 314.218 25.8836C316.127 26.3254 318.175 26.2149 319.614 24.7514C320.001 24.3648 319.392 23.7849 319.033 24.1715C317.179 26.0493 314.356 25.1656 312.226 24.3372C310.067 23.5087 307.854 22.6251 305.557 23.4811C304.118 24.0334 303.149 24.42 301.6 23.8953C300.548 23.5364 299.58 22.9565 298.501 22.6527C296.868 22.1556 295.346 22.4318 293.852 23.1774C292.136 24.0334 290.642 25.3865 288.843 26.1045C286.464 27.0434 284.61 25.8007 282.451 24.8895C280.874 24.2267 279.38 24.1163 277.803 24.8066C275.893 25.6627 274.039 27.5404 271.798 26.7396C270.608 26.3254 269.667 25.3589 268.588 24.7514C267.675 24.2543 266.679 23.8953 265.655 23.702C263.69 23.3431 261.781 23.6744 260.231 24.9723C259.844 25.3865 260.453 25.9664 260.84 25.6074Z" fill="#E8E8E8"/>
<path d="M270.802 44.468C271.328 44.468 271.328 43.6395 270.802 43.6395C270.276 43.6395 270.276 44.468 270.802 44.468Z" fill="#E8E8E8"/>
<path d="M276.336 47.478C277.637 45.1307 280.708 46.2629 282.617 47.0361C284.527 47.8093 286.242 48.2788 288.262 47.5884C289.923 47.0085 291.417 45.9039 293.132 45.5173C295.512 44.9651 296.868 46.9809 299.026 47.4504C302.402 48.1959 305.806 44.4404 308.988 46.0144C309.874 46.4562 310.482 47.0361 311.534 46.9533C312.502 46.8981 313.388 46.4286 314.329 46.2077C316.957 45.6002 319.697 46.0696 322.049 47.3675C322.519 47.616 322.934 46.8981 322.464 46.6495C320.97 45.8211 319.365 45.324 317.677 45.1584C316.819 45.0755 315.934 45.1031 315.076 45.2412C314.052 45.3793 313.111 45.8211 312.115 46.0144C310.759 46.2629 310.178 45.6002 309.071 45.1307C308.518 44.9098 307.909 44.7994 307.328 44.827C305.944 44.8822 304.616 45.4621 303.343 45.9316C301.711 46.5391 299.967 47.119 298.307 46.2905C296.896 45.6002 295.789 44.5508 294.129 44.5508C290.697 44.5785 288.29 47.8646 284.665 46.8705C281.981 46.1249 277.664 43.5015 275.672 47.0361C275.368 47.5332 276.087 47.9474 276.336 47.478Z" fill="#E8E8E8"/>
<path d="M249.495 80.5323C251.46 78.9859 253.701 79.0688 255.859 80.0629C257.049 80.6152 258.322 81.1399 259.567 80.3943C260.287 79.9524 260.757 79.2621 261.615 79.0136C262.528 78.7374 263.497 78.9307 264.382 79.1516C265.959 79.5382 267.481 80.2286 269.114 80.339C271.051 80.4771 272.822 79.6487 274.704 79.4554C276.724 79.2621 278.135 80.4771 280.016 80.7532C281.843 81.0018 283.254 79.5382 285.08 79.8144C287.294 80.1457 289.48 80.8913 291.666 81.4436C292.192 81.5817 292.413 80.7809 291.887 80.6428C289.591 80.0629 287.211 79.1792 284.859 78.9307C282.867 78.7098 281.428 80.339 279.435 79.7315C277.581 79.1792 276.253 78.3784 274.261 78.6546C272.13 78.9583 270.193 79.7867 268.007 79.3173C266.319 78.9583 264.687 78.1575 262.943 78.0471C262.307 78.0194 261.643 78.0747 261.034 78.3232C260.259 78.627 259.844 79.2621 259.125 79.6763C257.464 80.6428 255.223 78.5993 253.452 78.4613C251.764 78.3232 250.215 78.9031 248.886 79.9248C248.471 80.2838 249.08 80.8637 249.495 80.5323Z" fill="#E8E8E8"/>
<path d="M90.8561 20.2779C91.3819 20.2779 91.3819 19.4495 90.8561 19.4495C90.3303 19.4495 90.3303 20.2779 90.8561 20.2779Z" fill="#E8E8E8"/>
<path d="M93.2911 20.913C93.7892 18.4553 97.0544 20.0293 98.2442 20.7749C99.6001 21.6309 101.039 22.4041 102.699 21.9347C104.498 21.41 105.715 19.8636 107.708 19.7532C109.589 19.6703 111.416 20.5264 113.187 21.0786C114.709 21.5481 116.314 21.8795 117.891 21.4929C119.745 21.051 121.322 19.7532 123.204 19.4218C126.912 18.7866 130.26 21.7966 134.023 20.6368C134.521 20.4711 134.327 19.6703 133.802 19.836C129.872 21.0786 126.137 17.5992 122.152 18.8419C120.104 19.477 118.389 20.913 116.147 20.8301C114.072 20.7473 112.191 19.7532 110.226 19.2561C108.676 18.8695 107.099 18.759 105.605 19.4494C104.747 19.836 104 20.4711 103.142 20.8853C101.731 21.5481 100.541 21.1615 99.2681 20.4435C97.8845 19.6427 96.6946 18.7038 95.0067 18.8419C93.8168 18.9247 92.7653 19.5322 92.5439 20.7473C92.4056 21.2167 93.2081 21.4376 93.2911 20.913Z" fill="#E8E8E8"/>
<path d="M95.8093 182.153C99.1021 180.773 102.423 183.23 105.743 183.396C107.459 183.479 109.119 183.065 110.807 182.733C112.938 182.319 114.764 182.291 116.812 183.147C118.057 183.672 119.191 184.003 120.464 183.506C121.184 183.23 121.793 182.761 122.512 182.512C123.314 182.236 124.145 182.181 125.002 182.181C127.963 182.236 130.924 183.258 133.746 181.932C134.217 181.711 133.802 180.994 133.331 181.214C130.315 182.623 126.967 181.076 123.785 181.408C122.263 181.573 121.267 182.457 119.856 182.871C118.168 183.368 116.507 181.932 114.847 181.684C111.277 181.132 107.902 183.12 104.304 182.402C101.427 181.822 98.521 180.137 95.5879 181.38C95.1175 181.573 95.3389 182.374 95.8093 182.153Z" fill="#E8E8E8"/>
<path d="M35.9841 141.477C38.3987 141.477 40.3562 139.524 40.3562 137.114C40.3562 134.705 38.3987 132.751 35.9841 132.751C33.5695 132.751 31.6121 134.705 31.6121 137.114C31.6121 139.524 33.5695 141.477 35.9841 141.477Z" fill="#0A3871"/>
<path d="M290.476 111.488C292.172 111.488 293.548 110.116 293.548 108.423C293.548 106.73 292.172 105.358 290.476 105.358C288.78 105.358 287.405 106.73 287.405 108.423C287.405 110.116 288.78 111.488 290.476 111.488Z" fill="#0A3871"/>
<path d="M262.833 4.70331C264.086 4.70331 265.102 3.68952 265.102 2.43894C265.102 1.18836 264.086 0.174561 262.833 0.174561C261.579 0.174561 260.564 1.18836 260.564 2.43894C260.564 3.68952 261.579 4.70331 262.833 4.70331Z" fill="#0A3871"/>
<path d="M162.884 201.069C164.443 201.069 165.707 199.808 165.707 198.252C165.707 196.697 164.443 195.436 162.884 195.436C161.325 195.436 160.062 196.697 160.062 198.252C160.062 199.808 161.325 201.069 162.884 201.069Z" fill="#0A3871"/>
<path d="M32.7742 41.0991C34.5622 41.0991 36.0117 39.6526 36.0117 37.8682C36.0117 36.0838 34.5622 34.6373 32.7742 34.6373C30.9861 34.6373 29.5366 36.0838 29.5366 37.8682C29.5366 39.6526 30.9861 41.0991 32.7742 41.0991Z" fill="#0A3871"/>
<path d="M144.4 154.456C145.424 154.456 146.254 153.628 146.254 152.606C146.254 151.584 145.424 150.756 144.4 150.756C143.376 150.756 142.546 151.584 142.546 152.606C142.546 153.628 143.376 154.456 144.4 154.456Z" fill="#0A3871"/>
<path d="M319.392 170.196C320.951 170.196 322.215 168.935 322.215 167.38C322.215 165.824 320.951 164.563 319.392 164.563C317.834 164.563 316.57 165.824 316.57 167.38C316.57 168.935 317.834 170.196 319.392 170.196Z" fill="#0A3871"/>
<path d="M11.7441 216.754C12.9056 216.754 13.8471 215.814 13.8471 214.655C13.8471 213.496 12.9056 212.557 11.7441 212.557C10.5827 212.557 9.64111 213.496 9.64111 214.655C9.64111 215.814 10.5827 216.754 11.7441 216.754Z" fill="#0A3871"/>
</svg>
