<svg width="78" height="87" viewBox="0 0 78 87" fill="none" xmlns="http://www.w3.org/2000/svg">
<path d="M24.7461 31.6636C22.3387 36.5514 19.9036 41.4391 17.4962 46.3269C27.4578 59.6646 37.4195 72.9747 47.3811 86.3125C49.9545 82.4188 52.5003 78.4424 55.0737 74.4383C61.1337 64.9389 66.917 55.5501 72.4512 46.244C70.5696 41.4667 68.6602 36.6618 66.7786 31.8846C65.5611 31.2494 64.3435 30.6419 63.126 30.0068C51.3381 30.0344 39.5502 30.062 27.7899 30.0896C26.7384 30.6419 25.7422 31.1666 24.7461 31.6636Z" fill="white"/>
<path d="M17.8283 46.5478C19.9313 41.9362 22.0897 37.3522 24.3034 32.7959C24.5247 32.3264 23.8329 31.8846 23.5839 32.3816C21.3702 36.938 19.2118 41.522 17.1088 46.1336C16.8874 46.603 17.6069 47.0449 17.8283 46.5478Z" fill="black"/>
<path d="M17.2748 47.0448C27.0151 60.3826 36.9491 73.5546 47.0767 86.6162C47.4088 87.0305 47.9899 86.4506 47.6578 86.0363C37.5855 73.03 27.7069 59.9131 17.9943 46.6306C17.6899 46.2164 16.9705 46.6306 17.2748 47.0448Z" fill="black"/>
<path d="M24.4971 32.3264C25.6592 31.7189 26.7938 31.0837 27.956 30.4762C28.4264 30.2277 28.0113 29.5097 27.5409 29.7583C26.3787 30.3658 25.2442 31.0009 24.082 31.6084C23.5839 31.8846 24.0266 32.5749 24.4971 32.3264Z" fill="black"/>
<path d="M28.6477 30.5314C37.2811 30.5314 45.9422 30.5314 54.5756 30.5314C55.1014 30.5314 55.1014 29.703 54.5756 29.703C45.9422 29.703 37.2811 29.703 28.6477 29.703C28.122 29.703 28.122 30.5314 28.6477 30.5314Z" fill="black"/>
<path d="M72.8387 46.1611C71.0954 41.5496 69.2967 36.9932 67.4428 32.4092C67.2491 31.9122 66.4466 32.1331 66.6403 32.6301C68.4943 37.1865 70.2929 41.7705 72.0362 46.3821C72.2299 46.8791 73.0324 46.6582 72.8387 46.1611Z" fill="black"/>
<path d="M71.9255 46.5754C63.8178 59.8303 55.5441 73.0024 47.1044 86.0639C46.8 86.5058 47.5195 86.92 47.8239 86.4782C56.2636 73.4166 64.5373 60.2721 72.6449 46.9896C72.9216 46.5478 72.2022 46.106 71.9255 46.5754Z" fill="black"/>
<path d="M66.9447 31.5533C65.9762 30.9457 65.0077 30.3106 64.0392 29.7031C63.5964 29.4269 63.1814 30.1173 63.6241 30.4211C64.5926 31.0286 65.5611 31.6637 66.5296 32.2712C67 32.575 67.4151 31.857 66.9447 31.5533Z" fill="black"/>
<path d="M63.0984 29.6202C55.8762 29.6202 48.654 29.6202 41.4595 29.6202C40.9337 29.6202 40.9337 30.4487 41.4595 30.4487C48.6817 30.4487 55.9039 30.4487 63.0984 30.4487C63.6241 30.4487 63.6241 29.6202 63.0984 29.6202Z" fill="black"/>
<path d="M18.1605 46.962C23.1136 44.8357 28.0667 42.7094 33.0199 40.5831C33.518 40.3622 33.0752 39.6718 32.6048 39.8651C27.6517 41.9914 22.6985 44.1177 17.7454 46.244C17.275 46.465 17.69 47.1829 18.1605 46.962Z" fill="black"/>
<path d="M24.6354 32.0779C27.6792 32.5473 30.6677 33.2101 33.6285 34.0385C34.1542 34.1766 34.3756 33.3758 33.8499 33.2377C30.889 32.3816 27.9006 31.7465 24.8567 31.2771C24.331 31.1942 24.0819 31.995 24.6354 32.0779Z" fill="black"/>
<path d="M33.4071 33.9005C34.0712 35.9716 34.6523 38.0426 35.1504 40.1689C35.2611 40.6936 36.0636 40.4727 35.9529 39.948C35.4548 37.8217 34.8737 35.7506 34.2096 33.6796C34.0436 33.1825 33.2411 33.3758 33.4071 33.9005Z" fill="black"/>
<path d="M34.6801 33.9833C42.096 33.9833 49.4842 33.9833 56.9001 33.9833C57.4258 33.9833 57.4258 33.1548 56.9001 33.1548C49.4842 33.1548 42.096 33.1548 34.6801 33.1548C34.1543 33.1548 34.1543 33.9833 34.6801 33.9833Z" fill="black"/>
<path d="M56.5402 34.149C56.2635 35.6678 55.9868 37.2142 55.7101 38.733C55.6271 39.2577 56.4296 39.4786 56.5126 38.9539C56.7893 37.4351 57.066 35.8887 57.3427 34.3699C57.4257 33.8452 56.6233 33.6243 56.5402 34.149Z" fill="black"/>
<path d="M35.5932 40.2241C42.0682 40.2241 48.5433 40.2241 55.046 40.2241C55.5718 40.2241 55.5718 39.3956 55.046 39.3956C48.571 39.3956 42.0959 39.3956 35.5932 39.3956C35.0674 39.3956 35.0674 40.2241 35.5932 40.2241Z" fill="black"/>
<path d="M57.7025 33.9833C60.7187 33.3482 63.7072 32.713 66.7233 32.0779C67.2491 31.9675 67.0277 31.1666 66.502 31.2771C63.4858 31.9122 60.4973 32.5474 57.4812 33.1825C56.9554 33.2929 57.1768 34.0938 57.7025 33.9833Z" fill="black"/>
<path d="M56.3189 39.9756C59.1137 40.4174 61.7148 41.9914 64.2606 43.1788C66.9724 44.4491 69.6565 45.7194 72.3682 46.9896C72.8387 47.2105 73.2814 46.4926 72.7833 46.2716C69.9055 44.9185 67.0554 43.5931 64.1776 42.24C61.7425 41.0802 59.2244 39.6166 56.5403 39.1748C56.0145 39.0919 55.7932 39.8927 56.3189 39.9756Z" fill="black"/>
<path d="M35.8423 41.4944C39.4395 56.2957 43.0091 71.1246 46.6064 85.9259C46.7447 86.4506 47.5195 86.2297 47.4088 85.705C43.8116 70.9037 40.242 56.0748 36.6447 41.2735C36.5064 40.7488 35.7039 40.9697 35.8423 41.4944Z" fill="black"/>
<path d="M55.1567 42.4885C51.7808 56.7375 48.986 71.1522 46.8277 85.6498C46.7447 86.1744 47.5471 86.3954 47.6301 85.8707C49.7885 71.3731 52.5833 56.986 55.9592 42.7094C56.0975 42.1847 55.2951 41.9638 55.1567 42.4885Z" fill="black"/>
<path d="M55.4335 14.8466C56.6787 11.6709 57.3704 8.32959 57.4811 4.90541C57.5088 4.38073 56.6787 4.38073 56.651 4.90541C56.5403 8.24674 55.8485 11.5052 54.631 14.6257C54.4373 15.1227 55.2398 15.316 55.4335 14.8466Z" fill="black"/>
<path d="M61.106 15.3988C63.7625 12.3888 66.751 9.73785 70.0992 7.50108C70.5419 7.19732 70.1269 6.47935 69.6841 6.78311C66.2806 9.04749 63.209 11.7537 60.5249 14.8189C60.1652 15.2055 60.7463 15.7854 61.106 15.3988Z" fill="black"/>
<path d="M66.5573 20.5075C69.9885 19.4858 73.5304 19.0992 77.1 19.3753C77.6258 19.4029 77.6258 18.5745 77.1 18.5469C73.4474 18.2707 69.8502 18.6573 66.3359 19.7067C65.8378 19.8724 66.0315 20.6732 66.5573 20.5075Z" fill="black"/>
<path d="M8.25407 1.14979C8.58613 6.61744 5.51462 11.8366 0.58914 14.2114C0.312427 14.3495 0.340099 14.7637 0.58914 14.9294C5.09955 17.6356 7.1749 22.6062 8.36476 27.4939C8.50312 28.0186 9.27791 27.7977 9.16722 27.273C7.92201 22.1643 5.70832 17.0004 1.00421 14.2114C1.00421 14.4599 1.00421 14.6808 1.00421 14.9294C6.17873 12.4165 9.44394 6.86597 9.08421 1.14979C9.05654 0.625118 8.2264 0.625118 8.25407 1.14979Z" fill="#E8E8E8"/>
<path d="M8.55842 1.14979C8.1987 6.89358 11.4639 12.4441 16.6384 14.9294C16.6384 14.6808 16.6384 14.4599 16.6384 14.2114C11.9066 17.028 9.69293 22.1919 8.44773 27.3282C8.30937 27.8529 9.11185 28.0738 9.2502 27.5491C10.4401 22.6338 12.5154 17.6356 17.0535 14.9294C17.3025 14.7913 17.3302 14.3495 17.0535 14.2114C12.128 11.8365 9.02882 6.61743 9.36088 1.14979C9.41622 0.625118 8.58609 0.625118 8.55842 1.14979Z" fill="#E8E8E8"/>
</svg>
