<svg width="57" height="115" viewBox="0 0 57 115" fill="none" xmlns="http://www.w3.org/2000/svg">
<path d="M47.0181 67.0563C46.9351 68.0781 46.8244 69.4864 46.7691 71.1157C46.52 76.6937 46.7414 80.9188 46.8244 82.0509C47.0458 85.7237 47.5438 90.5285 48.706 96.1066C47.5992 97.3769 45.9389 99.2547 43.8082 101.464C39.7682 105.689 37.6929 107.843 34.3723 110.08C30.6644 112.565 28.091 113.338 26.7074 113.697C24.9641 114.111 23.3039 114.498 21.2839 114.056C17.991 113.31 16.0263 110.88 15.3069 109.941C13.4806 107.622 13.0655 105.357 12.3184 100.939C11.765 97.7083 11.6543 95.2506 11.4882 90.5009C11.4052 88.2366 11.2945 85.4751 11.3499 81.7748C11.4052 77.605 11.6266 72.6621 12.2354 67.1392C12.5121 64.6539 12.8995 61.5887 13.5082 58.1093C13.0378 57.4465 12.5398 56.7838 12.014 56.0934C11.4606 55.3755 10.9348 54.6851 10.3814 53.9947C8.97017 55.1822 7.5866 56.3972 6.17537 57.5846C5.81564 57.7227 5.17922 57.9436 4.40442 57.8608C2.93785 57.7227 2.08004 56.701 1.77566 56.3696C0.419766 54.8232 0.613464 52.8626 0.668807 52.476C2.57812 50.4049 4.48743 48.3614 6.42442 46.2903C6.45209 45.1029 6.61812 43.5565 7.08853 41.8444C7.44826 40.5742 7.89099 39.5248 8.30606 38.6412C8.66578 37.9232 9.16387 37.1224 9.80031 36.3216C10.9348 34.8304 12.1524 33.781 13.1485 33.0631C12.3461 33.4221 12.1524 33.4221 12.097 33.3668C11.9587 33.1459 13.2592 31.5167 15.0855 31.351C16.1093 31.2405 16.9118 31.6271 17.4652 31.8757C18.323 32.2899 18.9041 32.8145 19.2639 33.2011C20.9795 31.7376 22.6951 30.274 24.4107 28.8381C25.0195 29.1971 25.6282 29.6113 26.237 30.0255C27.6482 30.992 28.9211 31.9585 30.0556 32.8974C29.6406 33.4221 29.1148 34.002 28.4507 34.5819C27.3439 35.5484 26.237 36.1283 25.3792 36.5149C25.905 36.6805 26.8458 37.0671 27.3162 37.9784C27.7866 38.8621 27.5929 39.8286 27.3162 41.0436C27.1225 41.872 26.8735 42.5348 26.6798 42.9766C26.7904 44.1364 26.8458 45.7104 26.5137 47.4778C25.988 50.3773 24.7704 52.5312 23.9403 53.7738C23.9126 54.8508 23.885 56.5353 23.9403 58.6063C24.1617 67.1392 25.4069 72.1374 26.2093 78.4335C26.6798 82.0233 27.1502 87.3529 27.0118 94.0632C27.6483 93.649 28.5614 92.9862 29.5852 92.1302C32.1863 89.9487 33.8466 87.7671 36.0326 84.5638C38.191 81.4434 39.6022 79.1238 41.5115 76.031C42.7014 74.0152 44.6107 70.95 47.0181 67.0563Z" fill="white"/>
<path opacity="0.24" d="M21.865 41.8444C21.2839 43.1146 20.7028 44.4125 20.1217 45.738C18.4337 49.7145 17.0502 53.5252 15.9156 57.1703C15.6666 62.9141 15.5282 67.719 15.4176 71.1984C15.2792 76.4728 15.6113 82.7688 16.22 95.361C16.4691 100.553 16.6904 103.701 19.1255 105.993C21.6713 108.367 25.2132 108.423 27.2055 108.423C37.8312 108.395 45.7729 99.3651 47.9589 96.7417C44.9981 101.768 41.6222 105.054 39.3255 106.987C36.7244 109.168 33.3762 111.902 28.174 113.255C23.7743 114.415 21.7819 114.166 21.2562 114.056C17.4652 113.145 15.3622 109.997 14.6151 108.92C12.8165 106.241 12.2354 103.452 11.9033 97.4597C11.5713 91.3017 11.931 89.6724 12.0417 81.1948C12.1247 73.1038 11.8203 70.8118 12.4291 65.2061C12.7888 61.92 13.2315 59.2138 13.5913 57.3913C12.5121 56.2591 11.4329 55.1269 10.3537 54.0223C9.44059 54.8231 8.49976 55.5963 7.55894 56.3971C6.95017 56.9218 6.31375 57.4465 5.70498 57.9435C5.15156 57.9988 4.34909 57.9712 3.49128 57.6122C1.27759 56.6733 -0.105973 53.9395 0.585807 53.0006C1.02855 52.3654 2.19073 52.8625 3.79566 52.8625C6.56278 52.8901 8.41675 51.4818 12.097 48.8308C14.6981 46.9254 17.6866 44.7991 21.865 41.8444Z" fill="#9B9797"/>
<path d="M46.6583 66.8353C40.2663 75.6443 35.5345 85.7512 27.4545 93.2623C27.0671 93.6213 27.6482 94.2012 28.0356 93.8422C36.1709 86.2758 40.9304 76.1138 47.3778 67.2495C47.7098 66.8353 46.9904 66.4211 46.6583 66.8353Z" fill="black"/>
<path d="M22.8611 114.691C33.819 113.973 41.6776 104.805 48.2633 97.0179C48.5954 96.6037 48.0143 96.0238 47.6822 96.438C41.2902 104.06 33.5422 113.172 22.8888 113.89C22.3354 113.89 22.3354 114.719 22.8611 114.691Z" fill="black"/>
<path d="M17.6589 36.9015C17.7142 39.083 19.1531 40.9608 21.2561 41.5683C21.7819 41.7064 22.0033 40.9056 21.4775 40.7675C19.7342 40.2704 18.5444 38.6964 18.489 36.9015C18.4613 36.3768 17.6312 36.3768 17.6589 36.9015Z" fill="black"/>
<path d="M18.5167 36.6529C18.7935 34.2505 23.0825 35.9902 24.2447 36.5977C25.3792 37.1776 26.5137 37.7575 26.7628 39.1382C26.9565 40.1876 26.6244 41.2921 26.3477 42.3139C26.2093 42.8385 27.0118 43.0595 27.1502 42.5348C27.5376 41.1541 27.9526 39.58 27.3715 38.2269C26.8181 36.8462 25.2962 36.2111 24.051 35.6036C22.7781 34.9961 21.3946 34.5542 19.9557 34.7199C19.3746 34.8028 18.6274 34.9408 18.157 35.3274C17.6589 35.714 17.7696 35.9902 17.6866 36.6805C17.6313 37.1776 18.4614 37.1776 18.5167 36.6529Z" fill="black"/>
<path d="M26.071 42.1482C25.988 44.2469 26.4584 46.2903 25.9603 48.389C25.4899 50.322 24.5491 52.1169 23.6083 53.8566C23.3592 54.3261 24.0787 54.7403 24.3277 54.2709C25.2962 52.4483 26.2647 50.5981 26.7628 48.6099C27.2886 46.456 26.8182 44.3297 26.9012 42.1482C26.9288 41.5959 26.0987 41.5959 26.071 42.1482Z" fill="black"/>
<path d="M23.6082 53.8842C22.9718 68.4369 27.1501 82.686 26.486 97.2388C26.4583 97.7634 27.2885 97.7634 27.3162 97.2388C27.9803 82.686 23.8019 68.4369 24.4383 53.8842C24.466 53.3595 23.6359 53.3595 23.6082 53.8842Z" fill="black"/>
<path d="M10.0217 54.1879C10.8518 55.3478 11.7373 56.4523 12.7334 57.4741C13.0932 57.8607 13.6743 57.2808 13.3145 56.8942C12.3737 55.9 11.5159 54.8783 10.7411 53.7737C10.409 53.3319 9.6896 53.7461 10.0217 54.1879Z" fill="black"/>
<path d="M13.2039 57.2532C11.6266 66.2278 10.8518 75.3406 10.8795 84.4533C10.9072 88.9821 11.1285 93.5384 11.5713 98.0396C11.931 101.878 12.3737 105.91 14.3937 109.279C16.22 112.344 19.4299 114.663 23.0825 114.581C23.6083 114.553 23.6083 113.725 23.0825 113.752C17.9633 113.89 14.6705 109.334 13.4806 104.86C12.1524 99.945 12.0417 94.5878 11.848 89.5343C11.4329 78.82 12.1801 68.0504 14.034 57.5017C14.0894 56.9494 13.2869 56.7285 13.2039 57.2532Z" fill="black"/>
<path d="M7.97399 44.8543C5.3729 47.0359 2.85482 49.3278 0.475098 51.7303C0.087701 52.1169 0.696461 52.6968 1.05619 52.3102C3.46358 49.9078 5.954 47.6157 8.5551 45.4342C8.97017 45.1028 8.38906 44.5229 7.97399 44.8543Z" fill="black"/>
<path d="M0.22609 52.4759C-0.188977 55.6792 2.24608 58.3854 5.4836 58.3578C6.00935 58.3578 6.00935 57.5293 5.4836 57.5293C2.68882 57.5569 0.696499 55.2097 1.05622 52.4759C1.13924 51.9512 0.309103 51.9512 0.22609 52.4759Z" fill="black"/>
<path d="M1.00088 52.2827C3.90635 52.3655 5.92633 54.9613 5.31757 57.7779C5.20688 58.3026 6.00935 58.5235 6.12004 57.9988C6.86716 54.6023 4.48744 51.5647 1.00088 51.4542C0.47513 51.4542 0.47513 52.2827 1.00088 52.2827Z" fill="black"/>
<path d="M6.45207 57.8607C9.60659 54.9888 12.8165 52.1445 15.888 49.1898C17.2992 47.8367 18.6551 46.456 19.928 44.9648C20.6198 44.164 22.363 42.59 22.3907 41.4854C22.3907 41.3473 22.3077 41.1816 22.197 41.1264C22.1417 41.0988 22.0863 41.0712 22.0587 41.0712C21.8926 40.9883 21.6713 40.9883 21.5606 41.1264C21.5329 41.154 21.5052 41.1816 21.4776 41.2369C21.1455 41.6511 21.7266 42.231 22.0587 41.8168C22.0863 41.7892 22.114 41.7615 22.1417 41.7063C21.9756 41.7339 21.8096 41.7615 21.6436 41.7615C21.5882 41.513 21.5052 41.513 21.3945 41.7892C21.2562 41.9825 21.1178 42.1758 20.9518 42.3691C20.6198 42.7833 20.3154 43.1975 19.9556 43.6117C19.4022 44.3021 18.7934 44.9648 18.2123 45.6276C16.9948 46.953 15.7219 48.1957 14.4214 49.4107C11.5989 52.0617 8.72112 54.6298 5.87098 57.2532C5.45591 57.6398 6.06467 58.2197 6.45207 57.8607Z" fill="black"/>
<path d="M6.81187 46.4007C7.00557 45.0752 7.19926 43.7498 7.39296 42.4243C7.53132 41.4301 7.64201 40.3256 8.19543 39.4419C9.46831 37.3985 11.2669 38.862 12.2354 40.2427C12.6505 40.8226 13.0379 41.4578 13.453 42.0377C13.6743 42.369 14.7535 43.5565 14.6151 43.9707C14.7535 43.8602 14.8919 43.7774 15.0025 43.6669C14.9472 43.6669 14.9195 43.6669 14.8642 43.6669C14.3384 43.6393 14.3384 44.4677 14.8642 44.4953C14.9195 44.4953 14.9472 44.4953 15.0025 44.4953C15.1962 44.4953 15.3623 44.3573 15.3899 44.1916C15.5836 43.5012 15.1132 43.087 14.7535 42.5347C14.0617 41.513 13.3976 40.4636 12.6782 39.4695C11.931 38.4478 10.9626 37.4537 9.57899 37.5917C8.25078 37.7298 7.44831 38.7516 7.03324 39.939C6.34146 41.8996 6.28612 44.1364 5.98174 46.1798C5.92639 46.7045 6.72886 46.9254 6.81187 46.4007Z" fill="black"/>
<path d="M8.11242 43.2804C8.85954 44.744 10.1048 46.2352 11.8757 46.3456C13.3423 46.4561 14.7258 45.6276 15.1132 44.1917C15.2516 43.667 14.4491 43.4461 14.3108 43.9708C13.951 45.2963 12.4845 45.7933 11.2669 45.3791C10.1048 44.9649 9.35763 43.9432 8.83188 42.8938C8.58284 42.3967 7.86338 42.811 8.11242 43.2804Z" fill="black"/>
<path d="M9.13625 37.8956C9.27461 36.5425 10.8242 36.1835 11.8757 36.5425C12.9826 36.9015 13.8404 37.8956 14.6151 38.6964C15.2239 39.3316 16.4138 40.2152 16.5798 41.0989C16.8012 42.2863 15.3069 43.0871 14.3108 43.3909C13.8127 43.5289 14.0064 44.3298 14.5321 44.1917C15.7497 43.8327 17.5206 42.7557 17.7143 41.3198C17.7973 40.7399 17.4376 40.4361 17.0502 40.0219C16.2754 39.1935 15.5283 38.3927 14.7258 37.5919C13.6467 36.4873 12.2631 35.2999 10.6028 35.576C9.35762 35.7693 8.44447 36.5977 8.30611 37.868C8.25077 38.4203 9.08091 38.4203 9.13625 37.8956Z" fill="black"/>
<path d="M10.6305 35.8521C11.0179 35.4103 11.2115 34.8304 11.5713 34.3886C12.4567 33.284 13.8403 34.3057 14.7535 34.9685C16.5244 36.2111 18.4061 38.4755 16.8011 40.6294C16.4967 41.0712 17.2162 41.4854 17.5206 41.0436C19.2362 38.724 17.5482 36.0454 15.5836 34.5542C14.6704 33.8639 13.2869 32.6212 12.0417 32.9802C10.9348 33.284 10.7411 34.5542 10.0493 35.2998C9.68962 35.6588 10.2707 36.2387 10.6305 35.8521Z" fill="black"/>
<path d="M13.4252 33.3391C14.3937 32.1517 15.6666 30.9091 17.1608 32.1517C18.157 32.9525 18.7934 34.0847 19.1532 35.2721C19.3192 35.7692 20.094 35.5759 19.9556 35.0512C19.4852 33.4496 18.406 31.5994 16.8011 30.9367C15.1685 30.2739 13.8126 31.5718 12.8441 32.7592C12.5121 33.1458 13.0932 33.7533 13.4252 33.3391Z" fill="black"/>
<path d="M19.5406 33.4496C21.2562 31.986 22.9718 30.5225 24.6874 29.0865C25.1024 28.7276 24.4937 28.1476 24.1063 28.5066C22.3907 29.9702 20.6751 31.4338 18.9595 32.8697C18.5444 33.2287 19.1532 33.8086 19.5406 33.4496Z" fill="black"/>
<path d="M25.656 36.9842C27.2886 35.7968 28.8658 34.5266 30.3324 33.1459C30.7198 32.7869 30.1387 32.207 29.7513 32.566C28.3124 33.8914 26.8182 35.1341 25.2409 36.2663C24.7982 36.57 25.2132 37.288 25.656 36.9842Z" fill="black"/>
<path d="M38.0803 34.9132C47.3109 34.9132 54.7937 27.4457 54.7937 18.2341C54.7937 9.02253 47.3109 1.55505 38.0803 1.55505C28.8498 1.55505 21.3669 9.02253 21.3669 18.2341C21.3669 27.4457 28.8498 34.9132 38.0803 34.9132Z" stroke="black" stroke-width="3" stroke-miterlimit="10"/>
<path d="M27.9526 20.2776C34.0956 16.3563 40.377 12.656 46.7967 9.17661C47.2671 8.92808 46.852 8.2101 46.3816 8.45863C39.9619 11.9104 33.6805 15.6108 27.5375 19.5596C27.0948 19.8634 27.5099 20.5813 27.9526 20.2776Z" fill="black"/>
<path d="M28.6444 27.5125C33.7082 23.8122 38.8274 20.25 44.0573 16.7706C44.5001 16.4668 44.085 15.7488 43.6422 16.0526C38.44 19.532 33.2932 23.1219 28.2293 26.7946C27.7866 27.0983 28.2016 27.8163 28.6444 27.5125Z" fill="black"/>
</svg>
