<svg width="73" height="101" viewBox="0 0 73 101" fill="none" xmlns="http://www.w3.org/2000/svg">
<path d="M56.186 3.53565C54.8301 5.02683 54.5811 6.71129 54.6641 13.1731C54.7194 19.9662 55.0791 24.6054 55.3005 29.9902C55.4665 33.8838 55.6049 36.9766 55.5219 41.0083C55.4389 46.0894 55.1068 50.2591 54.8024 53.0482C52.0906 56.0858 49.6833 58.4606 47.8846 60.1727C43.8446 64.0111 39.4449 68.1532 32.9422 72.0469C30.3688 73.5656 28.1551 74.6702 26.6608 75.3606C25.3049 75.1397 23.783 74.8083 22.1228 74.3941C18.1934 73.4 16.5608 72.5163 13.6 72.5163C12.7145 72.5163 9.91975 72.5163 9.64304 73.5104C9.394 74.3388 10.9436 75.6367 12.1611 76.2719C13.2956 76.8518 13.7937 76.6861 14.9282 77.2107C16.2011 77.8183 17.0312 78.7019 17.5293 79.3647C17.0036 80.1102 16.2011 81.2424 15.3156 82.706C14.2918 84.4181 14.0704 85.0808 12.8806 87.1243C11.6354 89.2782 10.9989 90.3552 10.4455 90.9075C9.5877 91.7083 9.06194 91.874 5.21565 93.5861C1.39702 95.2981 0.73291 95.6847 0.73291 96.1542C0.73291 96.6236 1.48004 96.7341 4.44086 98.0043C6.84825 99.0261 7.06962 99.247 8.31482 99.606C9.86441 100.048 10.8052 100.324 11.9397 100.075C13.7384 99.7164 14.9006 98.3633 15.3986 97.6454C15.6477 97.8663 16.2564 98.3357 17.0589 98.3633C17.6953 98.3633 18.2211 98.1148 18.6362 97.7834C20.3795 96.5408 21.2373 94.2488 22.9529 91.6807C23.2573 91.2388 24.3364 89.6096 26.0797 87.787C27.1589 86.6272 28.1551 85.7712 28.8745 85.1913C29.843 84.9704 31.2819 84.639 32.9975 84.1419C39.6663 82.2365 44.4811 79.9446 48.5211 78.0116C50.8731 76.8794 53.5295 75.3882 58.8147 72.4335C63.4082 69.8653 65.7879 68.4294 67.8909 65.6127C68.1123 65.309 69.2468 63.7902 70.243 61.5534C70.5473 60.863 71.6265 58.4054 72.2076 54.0975C72.4843 52.1921 72.4843 51.1428 72.512 45.1781C72.5673 37.5841 72.5673 38.4954 72.5673 37.7222C72.5396 26.5936 71.9586 27.5877 71.7649 17.3704C71.7372 16.4039 71.7095 13.7806 70.907 10.4668C70.0492 6.87698 68.9701 5.27536 68.3613 4.47454C67.5865 3.45281 66.6457 2.23777 65.0408 1.54742C62.1076 0.249542 58.206 1.29889 56.186 3.53565Z" fill="white"/>
<path opacity="0.25" d="M65.0684 1.51984C65.7325 3.70137 66.535 6.84941 67.0884 10.6602C67.7526 15.2718 68.0016 20.3528 66.5074 33.6353C65.2621 44.7363 64.6534 50.2868 63.0485 55.4783C60.7517 62.8789 59.0914 68.2637 54.0276 72.5163C50.7624 75.2502 47.1928 76.5204 40.026 79.0333C34.7685 80.8835 30.2581 81.9881 27.1589 82.6784C24.9452 85.6608 21.6523 89.444 16.9759 93.0338C13.3233 95.8505 9.80904 97.7835 6.90356 99.109C7.31863 99.3851 9.03424 100.49 11.3586 100.186C14.0704 99.827 15.537 97.8939 15.786 97.535C16.3118 97.9216 17.0866 98.3358 17.9444 98.1977C19.7153 97.9216 20.6561 95.4087 21.1266 94.2765C22.1504 91.9292 24.1981 88.6984 28.7915 85.1637C31.8353 84.3629 35.9583 83.1479 40.7454 81.3253C47.4142 78.7572 51.8969 76.2719 56.7117 73.5933C64.432 69.2855 66.1753 67.5182 67.4482 65.8061C69.7725 62.6856 70.741 59.4824 71.1561 58.074C71.9032 55.5611 72.0416 52.7445 72.3183 47.2492C72.512 43.1623 72.512 40.0143 72.512 37.6394C72.512 33.5525 72.429 30.5149 72.346 27.8916C72.2353 24.0808 72.0139 19.6072 71.4605 14.2501C71.0454 10.3564 70.741 8.81003 69.8556 7.07032C68.4997 4.30889 66.4797 2.54157 65.0684 1.51984Z" fill="#9B9797"/>
<path d="M55.7709 3.42514C54.332 7.015 54.166 10.881 54.249 14.7194C54.332 18.9444 54.5534 23.1418 54.7471 27.3668C55.1345 35.9272 55.4112 44.5153 54.3874 53.0481C54.332 53.5728 55.1622 53.5728 55.2175 53.0481C56.2137 44.7086 55.9923 36.2862 55.6049 27.9191C55.4112 23.7769 55.1898 19.6348 55.0791 15.465C54.9685 11.4609 55.0515 7.42922 56.5734 3.64606C56.7671 3.149 55.9646 2.92808 55.7709 3.42514Z" fill="black"/>
<path d="M55.9923 52.3303C53.4466 53.7386 51.3989 55.7821 49.4342 57.9084C47.3036 60.2004 45.1729 62.4372 42.7932 64.4806C37.923 68.7056 32.4441 72.185 26.5778 74.8912C26.0797 75.1121 26.5225 75.8301 26.9929 75.6092C32.6378 73.0135 37.923 69.6997 42.6548 65.6957C45.0069 63.735 47.1652 61.5811 49.2406 59.3444C51.3989 56.9971 53.5572 54.6223 56.3797 53.0759C56.8778 52.7721 56.4628 52.0542 55.9923 52.3303Z" fill="black"/>
<path d="M26.7715 74.9463C23.7276 74.3112 20.6561 73.6485 17.6123 72.9581C16.0904 72.6267 14.5408 72.2125 12.9913 71.9364C12.0228 71.7707 10.9989 71.6879 10.1411 72.2401C8.81291 73.0962 8.81291 74.6702 10.0028 75.6091C10.8606 76.2995 11.9674 76.6032 12.9913 76.9346C14.6515 77.4592 16.0628 78.122 17.1419 79.5303C17.474 79.9445 18.1934 79.5303 17.8614 79.1161C16.8929 77.8735 15.7307 76.9898 14.2365 76.4651C13.2126 76.1061 12.0781 75.8852 11.1373 75.3606C10.4732 75.0016 9.61538 74.4493 10.1135 73.4552C10.5839 72.5163 11.7737 72.5991 12.6315 72.7372C14.9282 73.0686 17.2249 73.7313 19.5216 74.256C21.8737 74.7807 24.2257 75.2777 26.5778 75.7748C27.0759 75.8576 27.2972 75.0568 26.7715 74.9463Z" fill="black"/>
<path d="M16.4778 79.6686C15.2603 81.9053 14.0151 84.1145 12.7975 86.3512C12.1888 87.4282 11.663 88.588 10.9436 89.6373C10.1964 90.7143 9.20028 91.2666 8.03808 91.8189C5.85205 92.8406 3.5 93.669 1.39698 94.8564C0.456158 95.4087 -0.152613 96.4028 0.649854 97.3693C1.64602 98.5568 3.61068 98.0873 4.9389 97.8664C6.7652 97.5626 8.5085 96.9551 10.1688 96.1819C13.6277 94.5251 16.5608 91.9293 18.6639 88.7261C18.9682 88.2842 18.2488 87.87 17.9444 88.3119C16.0904 91.1837 13.517 93.5033 10.5008 95.105C9.06193 95.8505 7.51234 96.4581 5.93507 96.8171C5.04959 97.038 4.10877 97.2313 3.16795 97.2589C2.31014 97.3141 2.08876 97.4246 1.67369 96.5685C1.14794 96.0715 1.20328 95.7401 1.81205 95.5744C2.00575 95.4916 2.17178 95.4087 2.36548 95.3259C4.13644 94.4974 5.93506 93.6966 7.70603 92.8682C9.08959 92.2331 10.4455 91.6808 11.3863 90.4382C12.4931 88.9746 13.2679 87.2349 14.1534 85.6333C15.1773 83.7831 16.2011 81.9329 17.1973 80.1104C17.4463 79.6133 16.7269 79.1991 16.4778 79.6686Z" fill="black"/>
<path d="M29.1236 85.7161C36.5118 83.645 43.6786 80.8836 50.5411 77.4594C53.9446 75.7473 57.2652 73.8971 60.5027 71.8537C63.4082 70.0311 66.4797 68.181 68.555 65.3919C68.8594 64.9501 68.14 64.5359 67.8356 64.9777C65.6772 67.9048 62.3013 69.8102 59.2575 71.688C56.1583 73.5934 52.9485 75.3607 49.6833 76.99C43.0145 80.2761 36.0691 82.927 28.9022 84.9429C28.4041 85.0533 28.6255 85.8541 29.1236 85.7161Z" fill="black"/>
<path d="M56.3244 4.17085C58.6211 -0.330289 64.515 0.691442 67.4205 3.89471C70.9071 7.76072 71.0731 13.4217 71.4605 18.337C72.2906 29.079 72.4567 39.9038 71.7926 50.6458C71.4605 55.8649 70.6857 61.3878 67.1991 65.5299C66.8671 65.9442 67.4482 66.524 67.7802 66.1098C70.9071 62.3543 71.9862 57.6046 72.429 52.8549C73.0101 46.7798 73.0101 40.6218 72.9547 34.519C72.8994 28.1401 72.595 21.7336 72.0139 15.3823C71.5712 10.605 70.7134 5.33066 66.7564 2.15501C63.3805 -0.5512 57.7356 -0.468361 55.5773 3.75663C55.3559 4.22608 56.0753 4.64029 56.3244 4.17085Z" fill="black"/>
<path d="M4.19182 98.3358C6.21182 99.247 8.6469 100.628 10.9436 100.628C13.1573 100.6 14.7899 98.7776 16.2842 97.3969C20.5732 93.4204 24.8623 89.4439 29.1513 85.4951C29.5387 85.1361 28.9576 84.5562 28.5702 84.9152C24.9453 88.2842 21.3203 91.6255 17.6954 94.9944C16.0905 96.458 14.4302 98.5567 12.4102 99.4679C10.0305 100.545 6.76526 98.6119 4.63457 97.6454C4.13649 97.3969 3.72141 98.1148 4.19182 98.3358Z" fill="black"/>
<path d="M15.454 97.756C16.3671 99.4681 18.3871 98.7777 19.411 97.5903C21.431 95.2155 23.0082 92.3436 24.7238 89.7755C25.0282 89.3336 24.3088 88.9194 24.0044 89.3613C22.9252 90.9629 21.846 92.5645 20.7669 94.1662C20.1581 95.0498 17.474 99.8271 16.1734 97.3418C15.9244 96.8724 15.2049 97.2866 15.454 97.756Z" fill="black"/>
<path d="M9.03426 96.403C9.8644 96.8448 10.8882 97.2866 11.8014 96.8448C12.2718 96.5963 12.4655 96.2097 12.6869 95.7678C13.0743 95.0222 13.4617 94.4423 14.1811 93.9729C14.6239 93.6691 14.2088 92.9512 13.7661 93.2549C13.102 93.6967 12.5485 94.249 12.1611 94.967C11.8844 95.4917 11.7184 96.1268 10.9989 96.1821C10.4732 96.2373 9.89208 95.9059 9.44933 95.685C9.00659 95.4641 8.56385 96.1544 9.03426 96.403Z" fill="black"/>
</svg>
