<svg width="69" height="96" viewBox="0 0 69 96" fill="none" xmlns="http://www.w3.org/2000/svg">
<path d="M6.36167 35.6143C5.39318 37.5749 4.42469 40.861 4.12031 41.9379C3.67757 43.4844 2.6814 47.1018 2.12798 51.9067C1.82359 54.5577 1.49154 57.4572 1.76825 61.2956C1.90661 63.1182 2.1003 65.9901 3.17948 69.5523C3.89893 71.9824 4.95044 75.4894 7.80057 79.0793C10.291 82.1997 13.1411 84.1603 15.4102 85.3477C16.8491 85.3754 18.5923 85.2925 20.5293 84.9335C24.0159 84.2708 26.7277 82.9729 28.554 81.9236C28.803 83.3319 29.1351 84.8231 29.5502 86.3695C30.408 89.5727 31.4595 92.3894 32.511 94.8195C33.6455 94.6262 35.0014 94.2948 36.4403 93.6321C41.006 91.5058 43.1921 87.5845 43.9668 85.9553C43.5518 84.3536 43.2197 82.6139 42.9153 80.819C41.8638 74.1087 42.1406 68.1164 42.8047 63.2562C43.3858 63.4495 44.3266 63.6981 45.4888 63.6428C47.7578 63.5048 49.3074 62.2621 50.0822 61.5994C50.7463 61.0471 53.7625 58.3685 53.6518 54.392C53.6241 53.4531 53.5688 51.1611 51.9362 49.9185C50.4143 48.7863 48.3666 49.2005 46.8723 49.5043C45.1567 49.8633 43.8838 50.5812 43.109 51.0783C43.6901 49.1729 44.9077 44.2852 43.109 38.5966C42.7216 37.3816 40.1482 29.6495 32.5663 26.3082C22.2726 21.7242 9.90358 28.5174 6.36167 35.6143Z" fill="white"/>
<path opacity="0.24" d="M37.6301 35.78C37.8515 38.3482 38.0175 42.0761 37.6301 46.4944C36.4403 59.8874 31.1274 69.1934 29.7438 71.513C27.6408 75.0477 24.0436 80.1839 18.288 85.2374C20.0036 85.0164 21.9682 84.6298 24.0712 83.8843C29.8545 81.8408 33.7285 78.3338 35.8315 76.0418C35.9975 79.107 36.5233 82.8349 37.7685 86.9218C38.3219 88.6615 38.9307 90.2632 39.5671 91.6991C41.0337 89.7937 42.4726 87.8883 43.9392 85.9553C43.6348 84.1604 43.3581 82.255 43.1644 80.2944C42.5279 74.3573 42.5279 68.8897 42.86 64.0295C44.1052 64.0571 45.9038 63.9467 47.8131 63.2011C56.1698 59.8874 60.9293 46.7153 56.4189 39.5356C56.2252 39.2318 55.229 37.6854 53.1814 36.3047C46.8447 32.0521 38.7923 35.283 37.6301 35.78Z" fill="#9B9797"/>
<path d="M4.3416 41.1096C3.78818 39.2042 3.0134 35.5591 3.81586 31.0856C4.0649 29.7048 4.92271 25.2589 7.96654 21.7519C12.4216 16.6432 18.0112 17.6097 25.261 15.014C29.8545 13.3848 36.1635 9.96057 42.5555 1.89717C41.9745 4.87953 41.3933 7.88949 40.8122 10.8718C41.8084 11.148 45.1566 11.866 48.5878 10.1815C54.2881 7.39243 54.7862 0.654527 54.8139 0.350769C55.5056 1.89717 56.7509 5.32135 56.1974 9.68442C55.81 12.6668 54.7309 14.9035 53.9561 16.2566C54.2881 16.6156 56.0591 18.4382 58.1068 18.162C60.5972 17.8307 62.9215 14.4341 62.2574 10.0434C62.8109 11.6727 63.475 14.3513 63.3089 17.6374C63.0876 21.6414 61.7593 24.6514 60.8739 26.2807C61.0952 26.474 62.5065 27.7442 64.4988 27.4957C66.2421 27.2748 67.7363 26.0045 68.3174 24.2096C68.1791 26.0597 67.847 28.7383 66.7678 31.8035C65.3013 35.9457 64.0837 36.2771 63.475 39.2318C62.5065 43.871 64.9969 45.445 64.3328 49.5872C63.7793 53.0666 61.5103 55.2481 58.6325 58.0372C53.4027 63.0906 47.398 65.8244 42.3618 67.3432C42.5832 65.7968 42.8322 64.2504 43.0536 62.704C43.69 63.0906 44.7969 63.6153 46.1805 63.5601C49.0029 63.4496 50.7739 60.9367 51.7147 59.5836C52.7939 58.0648 54.5925 55.4691 53.624 52.68C52.8216 50.4156 50.6909 49.4767 50.4972 49.3939C48.0068 48.3445 44.7969 49.2834 42.7216 51.824C41.5594 47.2676 40.4249 42.7388 39.2627 38.1825C35.3334 35.6972 31.4317 33.2395 27.5024 30.7542C25.5654 30.3952 20.2802 29.6772 14.3586 32.3006C8.3816 34.9516 5.33777 39.4527 4.3416 41.1096Z" fill="#0A3871"/>
<path d="M3.92658 40.9992C1.57452 49.7805 0.16329 59.1142 2.32165 68.0889C4.09261 75.3791 8.57537 83.691 16.2126 86.0658C16.7107 86.2315 16.9321 85.4307 16.434 85.265C8.76906 82.8902 4.48 74.2469 2.90274 66.9567C1.04877 58.3962 2.46 49.5596 4.70138 41.2201C4.8674 40.723 4.06494 40.5021 3.92658 40.9992Z" fill="black"/>
<path d="M16.8214 85.9277C29.5778 84.6298 40.2312 75.4342 43.2197 62.9525C43.3304 62.4278 42.5556 62.2069 42.4172 62.7316C39.5117 74.7991 29.2457 83.829 16.8214 85.0992C16.2956 85.1545 16.268 85.9829 16.8214 85.9277Z" fill="black"/>
<path d="M42.5003 63.1734C48.2005 66.6528 53.7624 59.3626 54.1221 54.254C54.3158 51.5478 53.0706 49.4767 50.3865 48.7035C47.8961 47.9855 45.1844 48.7311 43.4134 50.6089C43.0537 50.9955 43.6348 51.5754 43.9945 51.1888C45.4611 49.6147 47.6748 48.9244 49.8054 49.3938C50.9123 49.6424 52.1298 50.2499 52.7663 51.244C53.4581 52.321 53.375 53.8121 53.209 54.9995C52.5449 59.2798 47.7855 65.4102 42.9153 62.4278C42.4726 62.1793 42.0299 62.8973 42.5003 63.1734Z" fill="black"/>
<path d="M42.4449 63.1182C41.3658 70.7674 41.7531 78.527 43.5794 86.0381C43.7178 86.5628 44.5202 86.3419 44.3819 85.8172C42.5833 78.4442 42.1959 70.8226 43.2474 63.3391C43.3027 62.8144 42.5003 62.5935 42.4449 63.1182Z" fill="black"/>
<path d="M28.1389 82.034C28.9967 86.5076 30.3249 90.843 32.1512 95.0404C32.3726 95.5375 33.0921 95.0956 32.8707 94.6262C31.0721 90.5117 29.7715 86.2314 28.9414 81.8131C28.8307 81.2885 28.0559 81.5094 28.1389 82.034Z" fill="black"/>
<path d="M32.7323 95.1509C38.0729 94.2948 42.5833 90.6221 44.6033 85.6239C44.797 85.1268 43.9945 84.9059 43.8008 85.403C41.8915 90.1527 37.5471 93.5492 32.5109 94.35C31.9852 94.4329 32.2066 95.2337 32.7323 95.1509Z" fill="black"/>
<path d="M28.803 83.0005C29.9375 83.0557 30.7123 82.2825 31.5701 81.6197C32.7046 80.7361 33.7838 79.7972 34.78 78.8031C36.634 76.9529 38.1282 74.8266 39.0967 72.3965C39.2904 71.8995 38.4879 71.6786 38.2942 72.1756C37.4364 74.3295 36.1082 76.2349 34.5033 77.8918C33.7838 78.665 33.009 79.3554 32.2066 80.0457C31.3211 80.7913 30.0482 82.2273 28.803 82.172C28.2773 82.1444 28.2773 82.9728 28.803 83.0005Z" fill="black"/>
<path d="M28.8584 82.5589C31.2104 81.0401 33.3964 79.3004 35.4441 77.395C35.8315 77.036 35.2504 76.4285 34.863 76.8151C32.8707 78.6929 30.74 80.3774 28.4433 81.8685C27.9729 82.1171 28.4156 82.835 28.8584 82.5589Z" fill="black"/>
<path d="M12.5877 42.6008C11.0382 49.6424 10.1527 56.7946 9.95898 64.0019C9.95898 64.4161 10.5124 64.5542 10.7338 64.2228C11.813 62.5107 12.8921 60.771 13.9713 59.0589C14.248 58.6171 13.5286 58.1753 13.2519 58.6447C12.1727 60.3568 11.0935 62.0965 10.0143 63.8086C10.2634 63.8915 10.5401 63.9467 10.7891 64.0295C10.9828 56.905 11.8683 49.8081 13.3902 42.8493C13.5009 42.297 12.6984 42.0761 12.5877 42.6008Z" fill="black"/>
<path d="M13.6945 74.3849C13.0304 73.1423 12.5877 71.8168 12.477 70.4084C12.394 69.4143 12.6154 65.3826 14.497 66.9842C15.4932 67.8403 15.3548 69.7181 15.3825 70.9607C15.3825 71.5406 15.3825 72.1481 15.3271 72.728C15.2995 73.1423 15.2441 73.5565 15.1611 73.9431C14.4417 74.4401 13.8882 74.4125 13.5285 73.8879C13.1688 73.5013 12.56 74.0812 12.9474 74.4678C14.1373 75.6828 15.6869 75.738 16.0189 73.8326C16.268 72.4795 16.268 71.0436 16.1573 69.6905C16.0743 68.6135 16.0742 67.0671 15.2718 66.2387C14.0819 65.0236 12.394 66.1558 11.9236 67.4537C11.0658 69.7733 11.8959 72.7004 13.0027 74.7991C13.2241 75.2686 13.9436 74.8544 13.6945 74.3849Z" fill="black"/>
<path d="M19.4224 49.5319C20.2526 53.4256 25.3718 53.7293 26.8937 50.1395C27.0874 49.6424 26.2849 49.4215 26.0912 49.9185C24.846 52.8457 20.8613 52.2934 20.2249 49.311C20.1142 48.814 19.3118 49.0073 19.4224 49.5319Z" fill="black"/>
<path d="M17.7899 39.9498C18.8414 37.6025 21.5532 36.4703 24.0436 36.995C26.617 37.5473 28.5817 39.5355 29.8545 41.7171C30.1312 42.1865 30.8507 41.7723 30.574 41.3029C29.1074 38.79 26.783 36.5532 23.7946 36.1114C21.1105 35.7248 18.2327 36.995 17.0705 39.5079C16.8491 40.0326 17.5686 40.4468 17.7899 39.9498Z" fill="black"/>
<path d="M1.57455 40.8611C2.32168 39.3147 3.62222 37.6302 5.53153 37.6578C7.35783 37.6855 8.68606 39.2871 9.59921 40.6954C9.87592 41.1373 10.5954 40.723 10.3187 40.2812C9.26716 38.5967 7.68989 36.857 5.53153 36.8294C3.31784 36.8018 1.76825 38.6244 0.882772 40.4469C0.633731 40.9163 1.35318 41.3306 1.57455 40.8611Z" fill="black"/>
<path d="M6.47239 53.3704C6.96142 53.3704 7.35786 51.553 7.35786 49.3111C7.35786 47.0692 6.96142 45.2518 6.47239 45.2518C5.98336 45.2518 5.58691 47.0692 5.58691 49.3111C5.58691 51.553 5.98336 53.3704 6.47239 53.3704Z" fill="black"/>
</svg>
