<svg width="123" height="89" viewBox="0 0 123 89" fill="none" xmlns="http://www.w3.org/2000/svg">
<path d="M78.0999 36.9654C80.1476 35.5019 82.223 34.0383 84.2706 32.5748C84.409 31.6359 84.8517 29.5924 86.5397 27.8527C87.0377 27.328 88.1999 26.113 89.9432 25.7816C91.7695 25.4226 93.1808 26.2511 94.758 26.969C97.3038 28.1289 99.7665 28.5707 104.637 29.5096C108.483 30.2275 110.42 30.5865 113.187 30.4485C116.95 30.2275 119.634 29.2334 121.239 30.8074C121.405 30.9731 122.097 31.7187 122.042 32.63C121.959 33.7898 120.714 34.5354 119.717 35.1153C115.373 37.6006 112.938 38.3185 112.938 38.3185C106.795 40.1135 103.696 41.0247 101.039 41.2457C98.881 41.4113 95.8095 41.4942 92.1016 40.9143C91.0224 44.6146 87.7572 46.9895 84.6857 46.7962C80.7287 46.5476 77.0761 42.1017 78.0999 36.9654Z" fill="black"/>
<path d="M38.364 12.5543C38.9728 10.7042 40.1073 8.35696 42.238 7.58375C43.6216 7.08669 44.8944 7.41806 45.3095 7.52852C47.8829 8.16365 53.1681 7.25238 63.7109 5.45744C68.9407 4.57378 75.5541 3.2759 83.1637 1.3429C83.1914 2.75123 83.1637 4.6014 83.0807 6.75532C82.887 11.5878 82.3889 15.2329 82.2782 16.089C81.8078 19.5132 80.9777 25.2017 78.4596 32.1053C77.8232 33.8726 77.1867 35.3362 76.744 36.3303C77.8232 36.8274 78.9854 37.4901 80.1199 38.429C84.7963 42.1569 86.1522 47.4313 86.595 49.668C85.9308 50.4689 84.9347 51.6563 83.6618 53.0094C78.5149 58.477 73.7555 61.5422 64.6793 67.1479C59.0898 70.5997 54.9944 73.1126 48.4364 76.9787C40.4671 81.6731 34.0197 85.3182 25.995 87.6102C24.0027 88.1901 20.8482 88.9633 16.8635 88.5491C14.9265 88.3558 11.44 87.9968 8.09176 85.5667C3.80272 82.4739 2.44684 77.9452 1.89342 75.9569C0.648216 71.511 1.11862 67.3413 2.28081 63.0058C3.08327 59.9682 5.98875 49.889 16.0887 38.5395C18.1087 36.2751 23.8643 31.1664 35.3202 20.9491C38.0873 18.4914 40.3564 16.4756 41.8783 15.1501C40.7161 14.2664 39.5539 13.4104 38.364 12.5543Z" fill="white"/>
<path opacity="0.18" d="M75.9969 4.90512C75.3604 7.33518 74.3366 10.8422 72.787 14.9568C58.647 52.3466 27.0465 68.501 29.6199 72.5327C31.5015 75.5151 49.5432 68.0868 62.5487 60.2719C72.2889 54.4177 79.5388 48.1492 84.3813 43.4272C83.6065 42.295 82.4166 40.7486 80.618 39.285C78.8747 37.8767 77.2144 37.0206 75.9692 36.496C76.827 35.2533 77.9615 33.3755 78.93 30.9731C79.5665 29.4267 80.1199 27.7698 80.8393 24.4009C82.0015 19.0713 82.472 14.8463 82.6103 13.5208C82.9424 10.3452 83.2467 6.23061 83.1914 1.37048C80.784 2.53029 78.4043 3.7177 75.9969 4.90512Z" fill="#9B9797"/>
<path d="M82.7764 1.34293C82.804 6.56204 82.472 11.7812 81.7525 16.9727C81.0884 21.6395 80.2583 26.4444 78.5426 30.8627C76.6887 35.64 73.5065 39.1194 69.6602 42.4055C65.7309 45.7468 61.7739 49.0329 57.8169 52.3191C53.2789 56.1022 48.7131 59.8578 44.175 63.6409C43.76 63.9723 44.341 64.5522 44.7561 64.2208C53.0851 57.3172 61.4142 50.4413 69.6879 43.4548C73.3405 40.362 76.661 37.1588 78.6533 32.7129C80.5903 28.405 81.5311 23.683 82.2783 19.0437C83.2191 13.1895 83.6618 7.28001 83.6065 1.34293C83.6065 0.790639 82.7764 0.790639 82.7764 1.34293Z" fill="black"/>
<path d="M38.8345 13.3276C39.969 13.9352 41.1035 14.5427 42.2657 15.1502C42.7361 15.3987 43.1512 14.6808 42.6808 14.4322C41.5463 13.8247 40.4118 13.2172 39.2496 12.6096C38.7792 12.3611 38.3641 13.0791 38.8345 13.3276Z" fill="black"/>
<path d="M42.2657 14.8188C32.4147 22.827 22.0657 30.7523 13.8474 40.4726C6.76357 48.8397 0.924941 59.4436 0.952613 70.6827C0.952613 75.6257 2.30851 80.7896 5.96111 84.2966C9.6137 87.8312 14.8989 89.2119 19.8797 88.9634C25.9674 88.6597 31.7507 86.2572 37.1742 83.6062C42.9852 80.7619 48.4917 77.393 54.0259 74.0517C65.4265 67.1481 78.1552 60.7139 86.7056 50.1928C87.0377 49.7786 86.4566 49.1987 86.1245 49.6129C78.9577 58.4495 68.8854 64.1105 59.2835 69.9095C53.9983 73.1128 48.7684 76.3713 43.3725 79.4089C38.0873 82.3912 32.5808 85.2355 26.7422 86.9199C21.2633 88.494 15.1479 88.8253 9.97343 86.0915C4.99262 83.4958 2.44686 78.4699 1.9211 73.0023C0.89727 61.9565 6.45918 50.966 13.1833 42.5713C21.5677 32.1054 32.5255 23.7659 42.8745 15.3711C43.2619 15.0673 42.6808 14.4874 42.2657 14.8188Z" fill="black"/>
<path d="M76.5503 36.6617C81.7525 39.1469 85.3775 44.0623 86.2353 49.7509C86.3183 50.2755 87.1207 50.0546 87.0377 49.5299C86.1799 43.6481 82.3613 38.4842 76.9931 35.9437C76.495 35.7228 76.0799 36.4407 76.5503 36.6617Z" fill="black"/>
<path d="M78.2106 37.3797C79.3174 36.9379 80.2029 36.1923 81.1437 35.4743C82.2506 34.6183 83.3851 33.7898 84.492 32.9338C84.907 32.6024 84.492 31.8844 84.0769 32.2158C83.0807 32.9614 82.0846 33.707 81.0884 34.4802C80.1199 35.2258 79.1514 36.1371 77.9892 36.5789C77.5188 36.7722 77.7125 37.573 78.2106 37.3797Z" fill="black"/>
<path d="M84.907 32.6023C85.4604 30.973 86.1246 29.3714 87.0101 27.8802C88.2276 25.8368 90.0539 26.0577 92.1015 26.5824C95.2837 27.3832 98.3276 28.5982 101.537 29.3162C107.763 30.6969 114.156 31.1663 120.52 30.7521C121.046 30.7245 121.046 29.8961 120.52 29.9237C113.021 30.4208 105.467 29.6476 98.2169 27.6041C96.4736 27.107 94.7857 26.4719 93.0424 25.9748C91.7141 25.5882 90.1369 25.1464 88.7533 25.4225C87.5081 25.6711 86.7887 26.61 86.1799 27.6593C85.3221 29.1505 84.658 30.7521 84.1046 32.3814C83.9385 32.8784 84.741 33.0994 84.907 32.6023Z" fill="black"/>
<path d="M86.0969 45.94C88.1722 44.366 90.2199 42.792 92.2952 41.218C92.7103 40.8866 92.2952 40.1686 91.8801 40.5C89.8048 42.074 87.7571 43.648 85.6818 45.222C85.2667 45.5534 85.6818 46.2714 86.0969 45.94Z" fill="black"/>
<path d="M92.2676 41.0247C99.0194 42.4883 105.909 41.3837 112.302 38.9537C115.207 37.8491 118.528 36.6065 121.018 34.7287C122.761 33.4308 123.01 30.9455 120.714 30.0618C120.215 29.8685 119.994 30.6694 120.492 30.8627C121.737 31.3321 121.876 32.6852 121.018 33.6241C120.603 34.0935 120.022 34.3973 119.468 34.7287C118.334 35.3638 117.172 35.9437 116.009 36.496C113.547 37.6558 111.001 38.6499 108.372 39.4231C103.198 40.9143 97.7742 41.4113 92.4613 40.2515C91.9632 40.1135 91.7419 40.9143 92.2676 41.0247Z" fill="black"/>
</svg>
