<svg width="105" height="81" viewBox="0 0 105 81" fill="none" xmlns="http://www.w3.org/2000/svg">
<path d="M65.2896 39.4509C66.258 39.0366 67.5862 38.4291 69.1082 37.5731C71.6539 36.1648 72.9268 35.4468 73.7016 34.3146C74.6977 32.8234 74.3103 32.0226 75.6109 30.5314C75.8046 30.2829 76.7178 29.3164 77.9076 28.7917C79.9553 27.9357 81.8646 28.9574 85.0468 30.0896C87.9799 31.1389 90.2766 31.636 94.87 32.6577C96.6963 33.0719 98.9101 33.4862 102.12 34.4803C103.033 34.7564 103.753 35.0049 104.251 35.1706C104.306 35.7505 104.334 37.2417 103.365 38.5948C102.922 39.2023 102.314 39.6994 101.345 40.1412C99.1037 41.1906 96.9731 40.9973 95.1745 40.9144C91.3005 40.7487 92.9054 41.301 83.7739 41.4667C81.7816 41.4943 80.149 41.4943 79.0145 41.4943C77.6032 42.4608 76.192 43.4549 74.7531 44.4767C72.318 46.244 69.9937 48.0113 67.78 49.751C66.9498 46.3268 66.1197 42.875 65.2896 39.4509Z" fill="black"/>
<path d="M53.7508 4.10452C51.7585 5.15387 51.5371 5.54047 44.1212 11.8365C32.5546 21.6396 31.2818 22.1643 20.7944 31.3047C10.7497 40.0308 8.8681 42.2123 6.95878 45.0842C2.19934 52.3468 1.14784 58.422 0.843453 61.3767C0.428385 65.3532 -0.125052 70.8761 3.38919 75.2391C5.60289 77.9729 8.4807 79.1051 9.44919 79.4641C12.3547 80.5687 14.7344 80.4306 19.0234 80.1269C24.7237 79.7127 29.0681 78.6081 30.7837 78.1386C32.6653 77.6139 37.0374 76.3161 42.5163 73.6099C47.6631 71.0694 49.8768 69.1916 56.9053 64.4695C60.0322 62.3708 64.6533 59.3056 70.4642 55.771C70.8239 53.0096 70.5195 50.8556 70.2152 49.5025C69.4957 46.2993 68.0292 44.0901 66.3966 41.6601C65.0683 39.6718 63.7954 38.153 62.91 37.1589C64.9853 35.5849 67.6971 33.3205 70.5472 30.283C72.4566 28.2395 75.4727 24.981 77.9908 20.397C81.0899 14.7637 84.1891 9.07512 82.1968 5.15388C79.07 -1.00412 64.1828 -1.28028 53.7508 4.10452Z" fill="white"/>
<path opacity="0.18" d="M78.5442 7.1145C76.9669 10.7596 74.3658 15.9235 70.2151 21.4464C64.1828 29.4269 58.0951 33.8452 48.9083 40.3898C22.925 58.8914 15.9519 63.1164 16.7267 64.8838C17.7782 67.2862 32.4163 62.9784 34.547 62.3432C50.0982 57.7593 61.554 50.69 68.7209 45.5261C66.8946 42.737 65.0683 39.948 63.242 37.1866C65.4834 35.5849 68.5825 33.0444 71.488 29.2612C73.0929 27.1902 75.528 23.9869 77.1053 19.1544C78.7102 14.3495 78.7655 10.0692 78.5442 7.1145Z" fill="#9B9797"/>
<path d="M53.6401 4.07704C43.7891 11.3948 34.1872 19.0716 24.945 27.1074C20.5176 30.9458 16.0902 34.7842 11.9396 38.8987C8.2593 42.5438 4.82807 46.5755 2.75273 51.3804C0.594374 56.351 -0.0143851 62.0948 0.511368 67.4796C0.954107 71.9255 2.58671 76.3991 6.65438 78.7187C10.9157 81.1211 16.2839 80.8726 20.9881 80.3755C26.7713 79.7956 32.4716 78.3873 37.8675 76.2057C49.9044 71.318 59.3403 62.1776 70.7132 56.1301C71.1836 55.8816 70.7685 55.1636 70.2981 55.4121C60.8069 60.4656 52.7269 67.7558 43.208 72.8092C38.2272 75.4602 32.859 77.3932 27.3247 78.5806C22.2056 79.6575 16.45 80.486 11.2478 79.4918C8.81272 79.0224 6.46068 78.0283 4.71739 76.2057C3.02945 74.4108 2.11629 72.0636 1.64588 69.6611C0.622046 64.442 1.09246 58.5326 2.80807 53.5067C4.52369 48.4809 7.8719 44.2559 11.5245 40.5004C15.3155 36.6068 19.4661 33.0169 23.5338 29.4546C33.3571 20.839 43.5401 12.6099 54.0551 4.82263C54.4702 4.49126 54.0828 3.77329 53.6401 4.07704Z" fill="black"/>
<path d="M26.5223 60.6864C35.5984 57.1794 43.8168 51.9326 51.62 46.1888C55.4663 43.3722 59.2573 40.445 63.0206 37.5179C66.7285 34.6184 70.2704 31.5532 73.1482 27.8253C73.4803 27.4111 72.7608 26.9969 72.4288 27.4111C69.4956 31.2219 65.8154 34.287 62.0521 37.2418C58.3441 40.1413 54.6085 43.0132 50.7899 45.8022C43.1527 51.3803 35.1557 56.5166 26.3009 59.9132C25.8028 60.0789 26.0242 60.8797 26.5223 60.6864Z" fill="black"/>
<path d="M62.6055 37.4352C67.9461 41.9087 70.7686 48.8399 70.0214 55.7711C69.9661 56.2958 70.7962 56.2958 70.8516 55.7711C71.5987 48.6466 68.6655 41.4669 63.1866 36.8553C62.7992 36.4963 62.2181 37.0762 62.6055 37.4352Z" fill="black"/>
<path d="M69.9661 48.0666C71.5433 47.5971 72.9269 46.2717 74.2551 45.3328C75.9154 44.173 77.548 43.0132 79.2082 41.8534C79.651 41.5496 79.2359 40.8316 78.7932 41.1354C77.2989 42.1847 75.777 43.2617 74.2828 44.311C72.8992 45.2775 71.3773 46.7687 69.7447 47.2658C69.219 47.4039 69.4403 48.2047 69.9661 48.0666Z" fill="black"/>
<path d="M65.4002 39.8375C68.5271 38.5396 71.4049 36.7723 74.006 34.5908C74.421 34.2318 73.8122 33.6519 73.4248 34.0109C70.9621 36.1096 68.195 37.794 65.2066 39.0367C64.7085 39.2576 64.9298 40.0584 65.4002 39.8375Z" fill="black"/>
<path d="M73.7016 34.2318C74.2273 34.2318 74.2273 33.4033 73.7016 33.4033C73.1759 33.4033 73.1759 34.2318 73.7016 34.2318Z" fill="black"/>
<path d="M74.6978 33.2377C75.1682 32.1332 75.6663 30.9181 76.5518 30.0621C77.7416 28.9023 79.1805 29.068 80.7025 29.3993C83.5249 30.0345 86.292 30.9181 89.0592 31.7189C91.6326 32.4369 94.206 33.072 96.8625 33.3758C98.4121 33.5415 99.7126 33.7348 101.096 34.4252C102.12 34.9222 103.005 35.4193 104.14 35.5297C104.666 35.585 104.666 34.7565 104.14 34.7013C102.618 34.5632 101.428 33.5139 99.9893 33.0444C98.5504 32.575 96.9455 32.6026 95.4512 32.3541C92.186 31.8294 89.0038 30.8353 85.8493 29.8964C84.2997 29.4546 82.7501 29.0127 81.1729 28.6538C80.0107 28.4052 78.7932 28.1015 77.631 28.4605C75.611 29.068 74.6425 31.2219 73.8953 33.0168C73.7016 33.5139 74.5041 33.7348 74.6978 33.2377Z" fill="black"/>
<path d="M79.0975 42.4609C85.0191 41.5773 90.8854 41.4392 96.8624 41.3288C98.9378 41.3011 101.151 41.0526 102.812 39.6995C104.223 38.5397 105.025 36.8552 104.638 35.0603C104.527 34.5356 103.725 34.7565 103.836 35.2812C104.361 37.7941 102.092 39.6443 99.8509 40.1966C97.5542 40.7488 95.0638 40.4727 92.7117 40.5279C88.063 40.6108 83.4696 40.9974 78.8762 41.6877C78.3504 41.743 78.5994 42.5438 79.0975 42.4609Z" fill="black"/>
</svg>
