<svg width="65" height="101" viewBox="0 0 65 101" fill="none" xmlns="http://www.w3.org/2000/svg">
<path d="M1.15641 12.7586C5.36243 9.27915 11.6438 5.08177 20.0282 2.59648C23.9575 1.43668 28.8829 0.00072965 35.4133 0.553017C45.4303 1.40906 52.3204 6.32442 54.7555 8.11935C58.5741 10.9084 61.1752 13.8631 62.7802 15.9342C63.0845 35.2919 63.4996 54.6772 64.0254 74.0348C64.1914 79.9995 64.3574 85.9919 64.5511 91.9566C60.6218 94.3866 55.1152 97.1205 48.1421 98.7221C31.8161 102.45 18.2295 97.4794 12.723 95.077C12.6953 90.1892 12.3909 82.8438 10.8967 74.0348C8.46161 59.5649 4.67065 53.7383 2.29093 41.2842C1.10106 34.8501 -0.0334476 25.185 1.15641 12.7586Z" fill="#0A3871"/>
</svg>
